<?xml version="1.0" encoding="UTF-8"?>
<svg width="1024px" height="1024px" viewBox="0 0 1024 1024" version="1.1" xmlns="http://www.w3.org/2000/svg" xmlns:xlink="http://www.w3.org/1999/xlink">
    <title>Square</title>
    <g id="Square" stroke="none" stroke-width="1" fill="none" fill-rule="evenodd">
        <path d="M924,0 C979.228475,-1.01453063e-14 1024,44.771525 1024,100 L1024,924 C1024,979.228475 979.228475,1024 924,1024 L100,1024 C44.771525,1024 6.76353751e-15,979.228475 0,924 L0,100 C-6.76353751e-15,44.771525 44.771525,1.01453063e-14 100,0 L924,0 Z M532.77399,242 C511.455444,242 490.258026,244.785946 469.181736,250.357839 C448.105446,255.929732 429.209462,264.772083 412.493783,276.884894 C395.778105,288.997704 382.211758,304.259845 371.794741,322.671317 C361.377724,341.082788 356.169215,363.128103 356.169215,388.807261 C356.169215,412.548369 360.045315,432.413378 367.797513,448.402288 C375.549712,464.391197 385.724473,477.836417 398.321795,488.737946 C410.919118,499.639475 425.212234,508.602955 441.201144,515.628385 C457.190053,522.653815 473.421219,528.589092 489.894641,533.434216 C506.368063,538.763853 521.993589,543.972361 536.771217,549.059741 C551.548846,554.147122 564.509553,560.324655 575.653338,567.592341 C586.797124,574.860027 595.639475,583.702379 602.180393,594.119396 C608.72131,604.536412 611.991769,617.49712 611.991769,633.001517 C611.991769,648.505914 608.842438,661.708877 602.543777,672.610406 C596.245116,683.511936 588.129533,692.596543 578.197028,699.86423 C568.264524,707.131916 557.241867,712.461552 545.129056,715.853139 C533.016246,719.244726 520.903436,720.94052 508.790625,720.94052 C485.049517,720.94052 463.004202,715.368627 442.654681,704.224841 C422.623121,693.255177 406.582223,678.999086 394.531988,661.456566 L393.961184,660.618724 L338,707.858684 C357.865009,732.568817 382.938526,751.222545 413.220552,763.819868 C443.502578,776.417191 474.874756,782.715852 507.337088,782.715852 C530.109171,782.715852 552.275614,779.566521 573.836417,773.26786 C595.397219,766.969199 614.414331,757.400079 630.887753,744.5605 C647.361175,731.720921 660.564138,715.489755 670.496643,695.867002 C680.429147,676.244249 685.3954,653.108782 685.3954,626.460599 C685.3954,600.781441 680.792532,579.584023 671.586796,562.868345 C662.38106,546.152667 650.510506,532.222935 635.975134,521.079149 C621.439761,509.935364 605.208595,500.971884 587.281636,494.188711 C569.354677,487.405537 551.669974,481.349132 534.227527,476.019495 C519.692155,471.174371 506.004679,466.450375 493.1651,461.847507 C480.325521,457.244639 469.181736,451.672746 459.733744,445.131829 C450.285752,438.590911 442.775809,430.596456 437.203916,421.148464 C431.632024,411.700472 428.846077,399.951046 428.846077,385.900186 C428.846077,371.364814 431.87428,358.888619 437.930685,348.471603 C443.98709,338.054586 451.860417,329.333362 461.550665,322.307932 C471.240913,315.282502 482.021315,310.195122 493.891869,307.045791 C505.762423,303.896461 517.511849,302.321795 529.140147,302.321795 C550.943205,302.321795 570.565958,306.803535 588.008405,315.767015 C605.144844,324.57324 618.773824,335.834687 628.895347,349.551354 L629.434216,350.288524 L680.308019,300.868258 C664.31911,282.941299 643.24282,268.648183 617.079149,257.98891 C590.915479,247.329637 562.813759,242 532.77399,242 Z" id="Combined-Shape" fill="#151515"></path>
    </g>
</svg>