<svg width="200" height="200" viewBox="0 0 200 200" fill="none" xmlns="http://www.w3.org/2000/svg">
<rect width="200" height="200" fill="#0E0E0E"/>
<path d="M102.24 84.5362V42.8734C102.24 33.4993 94.7403 26 85.5745 26H78.7002C69.5344 26 62.0351 33.4993 62.0351 42.8734V86.6193C62.0351 86.6193 61.2018 93.702 67.6595 98.9098L83.4914 110.992C85.3662 112.45 85.5745 114.533 85.5745 115.158V154.738C85.5745 156.613 84.1163 158.071 82.2415 158.071H82.0332C80.1584 158.071 78.7002 156.613 78.7002 154.738V113.492H62.0351V157.238C62.0351 166.612 69.5344 174.111 78.7002 174.111H85.5745C94.7403 174.111 102.24 166.612 102.24 157.238V113.492C102.24 103.284 95.5736 98.9098 95.5736 98.9098L81.4082 87.8692L80.575 87.2442C79.7417 86.411 78.7002 84.9528 78.7002 82.453V45.3732C78.7002 43.4984 80.1584 42.0402 82.0332 42.0402H82.2415C84.1163 42.0402 85.5745 43.4984 85.5745 45.3732V84.5362H102.24Z" fill="url(#paint0_linear_209_82)"/>
<path d="M120.316 27.2499V153.696C120.316 155.363 118.858 156.821 117.191 156.821H107.4V172.861H117.608C130.94 172.861 137.189 165.987 137.189 157.446V27.2499H120.316Z" fill="url(#paint1_linear_209_82)"/>
<defs>
<linearGradient id="paint0_linear_209_82" x1="114" y1="26" x2="112.5" y2="124.5" gradientUnits="userSpaceOnUse">
<stop stop-color="#FFF1A8"/>
<stop offset="1" stop-color="#FFE871"/>
</linearGradient>
<linearGradient id="paint1_linear_209_82" x1="114" y1="26" x2="112.5" y2="124.5" gradientUnits="userSpaceOnUse">
<stop stop-color="#FFF1A8"/>
<stop offset="1" stop-color="#FFE871"/>
</linearGradient>
</defs>
</svg>
