<?xml version="1.0" standalone="no"?>
<!DOCTYPE svg PUBLIC "-//W3C//DTD SVG 20010904//EN"
 "http://www.w3.org/TR/2001/REC-SVG-20010904/DTD/svg10.dtd">
<svg version="1.0" xmlns="http://www.w3.org/2000/svg"
 width="700.000000pt" height="700.000000pt" viewBox="0 0 700.000000 700.000000"
 preserveAspectRatio="xMidYMid meet">
<metadata>
Created by potrace 1.14, written by Peter Selinger 2001-2017
</metadata>
<g transform="translate(0.000000,700.000000) scale(0.100000,-0.100000)"
fill="#000000" stroke="none">
<path d="M0 3500 l0 -3500 3500 0 3500 0 0 3500 0 3500 -3500 0 -3500 0 0
-3500z m3134 2570 c221 -56 385 -229 430 -452 14 -66 16 -186 16 -828 l0 -750
-290 0 -289 0 -3 703 c-3 764 -1 731 -61 767 -42 26 -86 25 -128 -3 -61 -41
-60 -31 -57 -776 l3 -676 23 -46 c19 -40 62 -77 305 -266 155 -121 303 -242
330 -269 55 -57 117 -171 144 -264 17 -61 18 -121 18 -940 l0 -875 -22 -70
c-63 -197 -222 -350 -418 -400 -83 -21 -436 -21 -520 0 -211 54 -385 236 -430
450 -12 58 -15 204 -15 863 l0 792 290 0 290 0 2 -738 c2 -591 6 -742 16 -763
19 -36 63 -59 112 -59 57 0 105 47 115 111 3 24 5 357 3 739 -3 741 -1 713
-52 769 -11 13 -151 123 -309 244 -306 234 -365 289 -409 379 -59 121 -58 97
-58 1008 0 692 3 847 15 904 45 215 213 390 427 446 108 28 412 28 522 0z
m1666 -2332 c0 -2547 4 -2377 -62 -2500 -59 -111 -192 -209 -338 -251 -97 -28
-206 -37 -426 -37 l-214 0 0 280 0 280 180 0 c200 0 227 6 255 60 13 26 15
285 15 2255 l0 2225 295 0 295 0 0 -2312z"/>
</g>
</svg>
