<svg width="79" height="79" viewBox="0 0 79 79" fill="none" xmlns="http://www.w3.org/2000/svg">
<path d="M42.9358 4.31256L47.5208 27.9197C47.8706 29.7209 49.2791 31.1293 51.0803 31.4792L74.6874 36.0642C78.4644 36.7978 78.4644 42.2022 74.6874 42.9358L51.0803 47.5208C49.2791 47.8706 47.8707 49.2791 47.5208 51.0803L42.9358 74.6874C42.2022 78.4644 36.7978 78.4644 36.0642 74.6874L31.4792 51.0803C31.1293 49.2791 29.7209 47.8707 27.9197 47.5208L4.31258 42.9358C0.535645 42.2022 0.535645 36.7978 4.31256 36.0642L27.9197 31.4792C29.7209 31.1293 31.1293 29.7209 31.4792 27.9197L36.0642 4.31258C36.7978 0.535645 42.2022 0.535645 42.9358 4.31256Z" stroke="#FFE871"/>
</svg>
