<svg width="80" height="79" viewBox="0 0 80 79" fill="none" xmlns="http://www.w3.org/2000/svg">
<g clip-path="url(#clip0_8_124)">
<path d="M48.044 8.95109L48.8635 12.4918C49.0812 13.1631 49.3474 13.7769 49.6944 14.3751C50.7055 16.1265 51.6296 17.9249 52.3928 19.79C54.2047 24.2095 54.998 28.791 55.1632 33.5602C55.2492 36.4696 54.9475 39.3497 54.2318 42.1519C52.1293 50.5395 47.3448 56.9434 39.9755 61.3565C38.7802 62.0466 37.5378 62.6496 36.2479 63.1364C35.676 62.9831 35.5231 62.4721 35.3956 62.0052C35.1553 61.1478 35.113 60.2316 35.2029 59.3551C35.2708 58.2903 35.4082 57.2443 35.7534 56.2187L35.8797 55.7473C35.8603 55.6344 47.7794 9.13488 48.044 8.95109Z" fill="white" fill-opacity="0.92"/>
<path d="M48.0714 8.84877C48.04 8.69542 47.945 8.7797 47.8598 8.82726C47.7114 9.51221 47.3142 10.0518 46.791 10.5286C46.2321 10.9917 45.5775 11.2864 44.9123 11.6133C41.2232 13.4035 38.0273 15.9035 35.2014 18.9003C31.4269 22.941 28.779 27.646 26.9868 32.8661C26.3048 34.7393 25.2656 41.7161 25.347 43.8313C25.6074 49.4584 27.4067 54.5972 30.2349 59.3967C30.9343 60.5573 31.7171 61.6698 32.5434 62.7588C32.8467 62.84 32.952 62.5784 33.0754 62.3961C33.3235 62.0018 33.5426 61.5899 33.7307 61.1637L35.7599 56.295L48.0714 8.84877Z" fill="white"/>
<path d="M34.8075 64.9495C35.0822 64.1948 35.625 63.6529 36.2001 63.1216C35.8394 62.8448 35.6276 62.4299 35.4918 61.9939C35.379 61.6034 35.3192 61.1546 35.2872 60.7485C35.1947 59.208 35.4918 57.6975 35.7438 56.2162L35.9783 55.3411C35.774 55.4313 35.4327 56.5656 35.3872 56.7356C34.8797 58.2365 34.27 59.701 33.5626 61.1187C33.2996 61.6984 33.07 62.285 32.5527 62.724C32.5346 62.7917 32.5165 62.8593 32.5224 62.9685C32.6507 64.9161 32.3297 66.7785 31.9357 68.6586L31.7545 69.3347C31.5382 70.1422 31.5509 69.9634 32.1487 70.4135C32.3923 70.5864 32.6843 70.702 32.901 70.9753C33.1038 71.0297 33.1817 70.8704 33.2179 70.7352L33.4151 69.5975L34.2454 66.4988C34.3575 65.9491 34.6019 65.4389 34.8051 64.9509L34.8075 64.9495Z" fill="white"/>
</g>
<defs>
<clipPath id="clip0_8_124">
<rect width="64" height="64" fill="white" transform="translate(17.3726 0.552734) rotate(15)"/>
</clipPath>
</defs>
</svg>
