<svg width="172" height="173" viewBox="0 0 172 173" fill="none" xmlns="http://www.w3.org/2000/svg">
<g clip-path="url(#clip0_8_105)">
<path fill-rule="evenodd" clip-rule="evenodd" d="M99.1329 53.6511C99.4019 47.2478 92.6147 42.9091 86.916 45.8417L24.8083 77.8021C19.1096 80.7347 18.7733 88.7389 24.203 92.2097L47.3008 106.975C46.2768 103.464 47.6599 99.4068 51.3394 97.5196L98.3017 73.4319L99.1329 53.6511Z" fill="white"/>
<path d="M110.497 76.6347C115.185 74.2516 120.802 77.8421 120.607 83.0976L118.486 140.374C118.292 145.629 112.432 148.608 107.938 145.736L58.9654 114.431C54.4719 111.559 54.7151 104.989 59.4033 102.606L110.497 76.6347Z" fill="white"/>
</g>
<defs>
<clipPath id="clip0_8_105">
<rect width="124" height="124" fill="white" transform="translate(66.7855 0.744629) rotate(32.5879)"/>
</clipPath>
</defs>
</svg>
