<svg width="210" height="211" viewBox="0 0 210 211" fill="none" xmlns="http://www.w3.org/2000/svg">
<g clip-path="url(#clip0_7_92)">
<path d="M133.514 29.7608C94.9725 14.9216 90.944 32.5627 90.944 32.5627L84.32 49.8952L121.099 64.0558L119.098 69.2549L67.7097 49.4697C67.7097 49.4697 44.1238 37.1771 29.1505 76.0669C14.1773 114.957 36.2345 121.866 36.2345 121.866L49.0815 126.812L56.0297 108.766C56.0297 108.766 63.6254 86.9721 85.5003 95.3944C107.375 103.817 121.979 109.439 121.979 109.439C121.979 109.439 142.346 117.661 150.1 97.5221C157.854 77.3827 162.921 64.2222 162.921 64.2222C162.921 64.2221 173.792 45.2684 133.514 29.7608ZM108.751 33.5968C112.41 35.0057 114.229 39.102 112.82 42.7614C111.411 46.4208 107.315 48.2397 103.655 46.8308C99.9962 45.4219 98.1773 41.3256 99.5863 37.6662C100.995 34.0068 105.091 32.1879 108.751 33.5968Z" fill="white"/>
<path d="M76.4579 181.217C115 196.056 119.028 178.415 119.028 178.415L125.652 161.082L88.8727 146.922L90.8745 141.723L142.262 161.508C142.262 161.508 165.848 173.801 180.822 134.911C195.795 96.0207 173.738 89.1119 173.738 89.1119L160.891 84.1656L153.942 102.212C153.942 102.212 146.347 124.005 124.472 115.583C102.597 107.161 87.9932 101.538 87.9932 101.538C87.9932 101.538 67.6257 93.316 59.8717 113.455C52.1177 133.595 47.0507 146.755 47.0507 146.755C47.0507 146.755 36.1802 165.709 76.4579 181.217ZM101.221 177.381C97.5621 175.972 95.7433 171.876 97.1522 168.216C98.5611 164.557 102.657 162.738 106.317 164.147C109.976 165.556 111.795 169.652 110.386 173.311C108.977 176.971 104.881 178.79 101.221 177.381Z" fill="white"/>
</g>
<defs>
<clipPath id="clip0_7_92">
<rect width="162.685" height="161.842" fill="white" transform="translate(58.1509 0.744629) rotate(21.0575)"/>
</clipPath>
</defs>
</svg>
