<svg width="292" height="292" viewBox="0 0 292 292" fill="none" xmlns="http://www.w3.org/2000/svg">
<g clip-path="url(#clip0_7_90)">
<path d="M258.021 112.707L246.919 109.359C246.59 108.452 246.251 107.55 245.904 106.655L252.057 96.8247C252.682 95.8251 252.747 94.5757 252.224 93.5257C251.705 92.4675 250.676 91.7577 249.506 91.6505L237.985 90.5535C237.479 89.7173 236.963 88.891 236.439 88.0622L240.537 77.2475C240.956 76.1474 240.772 74.9115 240.058 73.9823C239.343 73.051 238.194 72.5546 237.032 72.6684L225.512 73.8305C224.858 73.1084 224.191 72.404 223.522 71.7138L225.432 60.2769C225.63 59.113 225.211 57.942 224.322 57.1574C223.438 56.3809 222.22 56.1144 221.091 56.4634L209.983 59.8582C209.21 59.289 208.428 58.7292 207.638 58.1853L207.296 46.5848C207.259 45.4068 206.619 44.3256 205.597 43.7393C204.581 43.1513 203.33 43.131 202.283 43.6905L192.065 49.1944C191.198 48.7853 190.322 48.3855 189.44 48.0011L186.828 36.6834C186.567 35.5375 185.726 34.6078 184.611 34.2322C183.494 33.8529 182.269 34.0788 181.354 34.8284L172.426 42.195C171.483 41.9642 170.54 41.7382 169.598 41.5281L164.84 30.9713C164.358 29.901 163.353 29.1522 162.189 29.0084C161.025 28.8531 159.854 29.3178 159.121 30.2255L151.805 39.1826C150.835 39.1379 149.864 39.1052 148.897 39.0856L142.186 29.6564C141.503 28.6957 140.374 28.1592 139.202 28.2361C138.029 28.3157 136.987 28.9922 136.429 30.0299L130.991 40.2734C130.042 40.4185 129.089 40.574 128.142 40.7462L119.686 32.7842C118.831 31.9789 117.618 31.6742 116.473 31.981C115.327 32.2879 114.44 33.1557 114.113 34.2777L110.77 45.401C109.863 45.7256 108.959 46.0676 108.067 46.4159L98.2363 40.2635C97.2401 39.6425 95.9913 39.5796 94.9374 40.0968C93.8803 40.6194 93.17 41.6466 93.0633 42.8188L91.9663 54.34C91.1295 54.8432 90.3055 55.3592 89.4961 55.8782L78.6815 51.7793C77.5813 51.3605 76.3421 51.5414 75.4163 52.2591C74.485 52.9735 73.9869 54.1251 74.1023 55.2843L75.2601 66.8057C74.543 67.4604 73.838 68.1259 73.144 68.7976L61.7288 66.8819C60.5676 66.6863 59.3944 67.1053 58.6098 67.9943C57.8328 68.8766 57.5686 70.1026 57.9159 71.2253L61.3106 82.3333C60.7414 83.1064 60.1822 83.8908 59.6334 84.6794L48.0329 85.0217C46.8555 85.0605 45.7749 85.7034 45.1874 86.7209C44.5963 87.7417 44.5797 88.9897 45.1386 90.0347L50.6208 100.258C50.2139 101.125 49.8157 101.999 49.4308 102.878L38.1136 105.492C36.9749 105.762 36.038 106.594 35.6624 107.709C35.2813 108.82 35.509 110.051 36.2586 110.966L43.631 119.916C43.399 120.854 43.1731 121.798 42.9641 122.744L32.4061 127.498C31.3337 127.98 30.5892 128.984 30.4432 130.148C30.2913 131.316 30.7548 132.482 31.6603 133.216L40.6174 140.532C40.5733 141.504 40.5391 142.478 40.524 143.463L31.0949 150.174C30.1385 150.855 29.602 151.985 29.6789 153.156C29.7564 154.33 30.4329 155.372 31.4727 155.93L41.7163 161.367C41.8613 162.316 42.0189 163.269 42.189 164.216L34.2487 172.666C33.4434 173.521 33.1381 174.733 33.4455 175.88C33.7529 177.027 34.6202 177.913 35.7422 178.24L46.8438 181.588C47.1706 182.495 47.5098 183.397 47.8587 184.291L41.7063 194.122C41.0831 195.119 41.0202 196.368 41.5396 197.421C42.0601 198.479 43.0888 199.186 44.2573 199.296L55.7785 200.393C56.2817 201.23 56.7983 202.056 57.3247 202.885L53.2258 213.699C52.8097 214.801 52.9901 216.038 53.7055 216.965C54.4233 217.9 55.5721 218.396 56.7524 218.273L68.2727 217.11C68.9286 217.832 69.5918 218.538 70.2646 219.227L68.3489 230.642C68.1533 231.803 68.5723 232.976 69.4612 233.761C70.3485 234.539 71.5745 234.803 72.6923 234.455L83.778 231.064C84.5566 231.636 85.3356 232.192 86.1242 232.741L86.4881 244.336C86.5242 245.511 87.1597 246.573 88.1815 247.159C89.1985 247.754 90.4497 247.765 91.4947 247.206L101.718 241.724C102.589 242.137 103.463 242.53 104.342 242.913L106.956 254.23C107.217 255.376 108.059 256.305 109.173 256.681C110.283 257.06 111.515 256.832 112.429 256.081L121.357 248.714C122.299 248.95 123.242 249.171 124.186 249.381L128.944 259.938C129.427 261.012 130.432 261.761 131.6 261.922C132.764 262.077 133.935 261.613 134.668 260.707L141.985 251.75C142.956 251.794 143.931 251.831 144.916 251.846L151.626 261.275C152.308 262.231 153.439 262.772 154.609 262.691C155.784 262.618 156.825 261.939 157.383 260.897L162.82 250.654C163.77 250.513 164.723 250.353 165.671 250.187L174.121 258.128C174.973 258.929 176.187 259.238 177.313 258.937C178.439 258.635 179.345 257.76 179.695 256.634L183.043 245.532C183.949 245.201 184.851 244.864 185.744 244.511L195.575 250.663C196.572 251.289 197.822 251.354 198.874 250.83C199.932 250.312 200.641 249.28 200.749 248.112L201.846 236.591C202.683 236.088 203.509 235.569 204.337 235.043L215.152 239.142C216.251 239.556 217.49 239.375 218.416 238.66C219.35 237.947 219.845 236.794 219.724 235.613L218.566 224.092C219.284 223.437 219.987 222.767 220.683 222.1L232.098 224.015C233.259 224.211 234.433 223.794 235.218 222.907C235.994 222.021 236.257 220.8 235.912 219.676L232.517 208.568C233.086 207.795 233.648 207.019 234.193 206.227L245.788 205.863C246.966 205.826 248.048 205.19 248.634 204.166C249.225 203.145 249.243 201.902 248.689 200.874L243.207 190.651C243.615 189.781 244.014 188.91 244.395 188.026L255.713 185.414C256.855 185.157 257.789 184.314 258.164 183.198C258.544 182.083 258.319 180.853 257.566 179.941L250.199 171.013C250.432 170.07 250.656 169.127 250.864 168.185L261.422 163.432C262.497 162.951 263.242 161.947 263.385 160.781C263.538 159.617 263.078 158.446 262.168 157.713L253.211 150.397C253.253 149.426 253.287 148.452 253.304 147.466L262.733 140.756C263.691 140.071 264.231 138.944 264.149 137.773C264.076 136.598 263.398 135.557 262.356 134.999L252.112 129.562C251.965 128.613 251.807 127.661 251.639 126.713L259.58 118.263C260.385 117.41 260.69 116.197 260.389 115.071C260.087 113.945 259.216 113.037 258.088 112.689L258.021 112.707ZM215.47 208.952C211.616 209.143 208.354 206.163 208.158 202.311C207.96 198.459 210.919 195.178 214.772 194.983C218.624 194.785 221.91 197.766 222.105 201.619C222.301 205.471 219.344 208.751 215.492 208.946L215.47 208.952ZM206.369 187.913C202.86 188.091 200.151 191.081 200.349 194.594L201.196 211.289C192.031 218.812 181.05 224.59 168.905 227.845C156.413 231.192 143.877 231.599 131.925 229.502L124.311 214.619C122.711 211.492 118.884 210.239 115.757 211.844L102.614 218.574C99.3182 216.598 96.1496 214.401 93.1355 212.001L161.018 193.812C161.786 193.606 162.261 193.33 162.074 192.632L155.623 168.559C155.436 167.86 154.887 167.859 154.119 168.064L134.275 173.382L130.201 158.179L151.65 152.431C153.609 151.907 162.276 150.184 167.905 160.349C169.652 163.461 174.45 173.844 176.665 176.993C178.986 180.555 186.266 186.973 191.796 185.491L225.629 176.425C226.013 176.322 226.411 176.169 226.822 175.976C225.334 179.791 223.561 183.497 221.562 187.055L206.472 187.821L206.369 187.913ZM118.243 234.655C114.81 236.417 110.61 235.055 108.852 231.616C107.097 228.181 108.446 223.961 111.885 222.203C115.32 220.448 119.52 221.81 121.276 225.242C123.031 228.677 121.68 232.898 118.243 234.655ZM64.4828 137.252C66.9046 140.253 66.4384 144.655 63.4445 147.084C60.4446 149.508 56.0637 149.034 53.6344 146.04C51.205 143.046 51.6788 138.638 54.6726 136.208C57.6731 133.787 62.0534 134.259 64.4828 137.252ZM61.5876 158.112L74.3867 147.755C77.119 145.547 77.5554 141.537 75.3363 138.807L70.5303 132.843L82.2851 129.693L96.4645 182.611L72.8248 188.945C68.8257 182.253 65.6719 174.916 63.5566 167.022C62.7488 164.007 62.1154 160.992 61.6432 157.981L61.5876 158.112ZM123.972 135.887L119.788 120.272L147.766 112.775C149.212 112.387 158.429 111.71 160.183 118.258C161.642 123.701 155.441 127.455 149.911 128.937L123.886 135.91L123.972 135.887ZM229.454 122.686C230.009 124.759 230.482 126.827 230.876 128.906L222.353 131.19C221.501 131.418 221.308 132.07 221.532 132.905L222.578 136.808C225.042 146.004 220.399 149.41 215.978 151.129C211.771 152.779 206.362 151.763 205.065 149.265C198.653 135.572 193.583 133.653 185.43 130.119C192.362 122.59 198.939 112.436 196.121 101.917C193.093 90.6181 183.444 85.5791 177.239 83.4995C168.514 80.6072 160.054 81.8279 157.842 82.4206L69.7898 106.014C78.1717 89.4959 91.8821 75.6874 109.17 67.336L122.476 75.4397C125.475 77.2628 129.386 76.331 131.226 73.3089L139.875 59.0899C165.38 57.1141 190.04 66.7315 207.564 84.4207L204.417 104.511C203.875 107.98 206.252 111.248 209.713 111.785L226.849 114.492C227.84 117.133 228.717 119.85 229.461 122.626L229.454 122.686ZM117.052 55.4076C119.05 52.1062 123.352 51.0698 126.632 53.0755C129.912 55.0791 130.97 59.3748 128.966 62.678C126.968 65.9794 122.666 67.0158 119.385 65.0079C116.106 63.0043 115.048 58.7086 117.052 55.4054L117.052 55.4076ZM213.023 97.7999C213.618 93.9911 217.185 91.3849 220.997 91.9906C224.806 92.5878 227.417 96.1744 226.812 99.9861C226.217 103.795 222.65 106.401 218.838 105.795C215.028 105.198 212.417 101.612 213.023 97.7999Z" fill="white"/>
</g>
<defs>
<clipPath id="clip0_7_90">
<rect width="238" height="238" fill="white" transform="translate(0.255371 61.5989) rotate(-15)"/>
</clipPath>
</defs>
</svg>
