<svg width="167" height="163" viewBox="0 0 167 163" fill="none" xmlns="http://www.w3.org/2000/svg">
<path d="M86.9588 3.61091L94.7095 53.6774C95.1922 56.7961 98.6516 58.462 101.391 56.895L145.367 31.7388C148.839 29.7527 152.389 34.2043 149.68 37.1472L115.369 74.4228C113.232 76.7448 114.086 80.4881 117.019 81.6528L164.106 100.35C167.823 101.826 166.556 107.377 162.566 107.094L112.03 103.51C108.883 103.286 106.489 106.288 107.407 109.308L122.147 157.779C123.31 161.606 118.18 164.076 115.914 160.78L87.2079 119.035C85.4198 116.434 81.5802 116.434 79.7921 119.035L51.0859 160.78C48.8196 164.076 43.6897 161.606 44.8534 157.779L59.5933 109.308C60.5115 106.288 58.1175 103.286 54.9696 103.51L4.43372 107.094C0.443911 107.377 -0.823072 101.826 2.89439 100.35L49.9809 81.6528C52.914 80.4881 53.7684 76.7448 51.6311 74.4228L17.32 37.1472C14.6112 34.2043 18.1612 29.7527 21.6331 31.7388L65.6091 56.895C68.3484 58.462 71.8078 56.7961 72.2905 53.6774L80.0412 3.61092C80.6531 -0.341822 86.3469 -0.341818 86.9588 3.61091Z" stroke="#FFE871"/>
</svg>
