<svg width="113" height="114" viewBox="0 0 113 114" fill="none" xmlns="http://www.w3.org/2000/svg">
<g clip-path="url(#clip0_7_97)">
<path fill-rule="evenodd" clip-rule="evenodd" d="M9.43569 15.5245L87.1858 2.34407C92.397 1.46066 97.3376 4.96901 98.221 10.1802L111.401 87.9303C112.285 93.1415 108.776 98.0821 103.565 98.9656L25.8152 112.146C20.604 113.029 15.6634 109.521 14.78 104.31L1.59956 26.5597C0.716148 21.3485 4.2245 16.4079 9.43569 15.5245ZM72.9062 84.1639L72.8427 83.7893L72.4982 83.9331C72.6336 84.0119 72.7696 84.0888 72.9062 84.1639ZM72.9062 84.1639L74.4423 93.225C76.1052 93.7585 78.0727 94.0268 80.2157 94.0712C82.3587 94.1156 84.6553 93.9204 86.9199 93.5365C89.1844 93.1526 91.2251 92.5931 93.2274 91.8072C95.2296 91.0212 96.8065 90.0162 98.1594 88.8356C99.5185 87.5762 100.606 86.0911 101.073 84.2647C101.54 82.4383 101.805 80.452 101.389 77.9987C101.098 76.2815 100.581 74.8354 99.8478 73.6008C99.1143 72.3662 98.1864 71.3586 97.0074 70.5878C95.8754 69.7508 94.6116 69.0526 93.1627 68.5217C91.7137 67.9908 90.0696 67.4541 88.2497 67.0249C87.4242 66.84 86.6869 66.6475 85.9562 66.4568C85.508 66.3398 85.0622 66.2235 84.6001 66.1099C83.5356 65.7856 82.6032 65.4389 81.8973 65.0538C81.1126 64.6627 80.4947 64.2238 80.0245 63.7405C79.5511 63.2384 79.2568 62.6476 79.1384 61.9494C79.0296 61.3078 79.0984 60.6943 79.3504 60.108C79.6024 59.5217 79.9987 59.008 80.5386 58.5282C81.0785 58.0484 81.7854 57.6373 82.6561 57.2762C83.5078 56.9182 84.4731 56.6575 85.6243 56.4624C86.4169 56.328 87.2571 56.2458 88.1076 56.2239C88.9959 56.1956 89.9139 56.2283 90.8424 56.3233C91.771 56.4183 92.6902 56.573 93.6412 56.8001C94.5355 57.0368 95.3828 57.3397 96.1265 57.7183L94.6229 48.8488C93.0959 48.5446 91.4403 48.3982 89.6971 48.4219C87.9539 48.4456 86.0443 48.6335 83.7798 49.0174C81.5152 49.4013 79.4809 49.9985 77.4851 50.8222C75.4892 51.6459 73.9187 52.6886 72.585 53.9825C71.2291 55.2607 70.3269 56.6949 69.6712 58.5533C69.053 60.2889 68.9261 62.1741 69.31 64.4387C69.7898 67.2694 71.0172 69.5851 72.9789 71.1939C74.9538 72.9946 77.7385 74.0757 81.2025 75.0415C82.4106 75.3086 83.5048 75.5949 84.5697 75.8736C84.7316 75.9159 84.8928 75.9581 85.0536 76C86.2723 76.3176 87.3054 76.686 88.153 77.1053C89.0573 77.5151 89.8013 78.0102 90.3441 78.5782C90.9247 79.1399 91.2979 79.8531 91.4451 80.7212C91.5475 81.3251 91.4963 81.9162 91.299 82.4932C91.1017 83.0702 90.7294 83.5993 90.1895 84.0791C89.6496 84.5589 88.9648 84.9856 88.0784 85.3688C87.2267 85.7268 86.2457 86.0095 84.9247 86.2335C82.8488 86.5854 80.7122 86.5787 78.7035 86.1815C76.6595 85.8418 74.7262 85.1642 72.9062 84.1639ZM65.1335 61.2173L53.0558 63.2648L58.9102 97.7994L49.2858 99.431L43.4314 64.8963L31.3537 66.9438L30.0421 59.2065L63.8219 53.4801L65.1335 61.2173Z" fill="white"/>
</g>
<defs>
<clipPath id="clip0_7_97">
<rect width="98" height="98" fill="white" transform="translate(0 17.124) rotate(-9.62145)"/>
</clipPath>
</defs>
</svg>
