<?xml version="1.0" standalone="no"?>
<!DOCTYPE svg PUBLIC "-//W3C//DTD SVG 20010904//EN"
 "http://www.w3.org/TR/2001/REC-SVG-20010904/DTD/svg10.dtd">
<svg version="1.0" xmlns="http://www.w3.org/2000/svg"
 width="700.000000pt" height="700.000000pt" viewBox="0 0 700.000000 700.000000"
 preserveAspectRatio="xMidYMid meet">
<metadata>
Created by potrace 1.11, written by Peter Selinger 2001-2013
</metadata>
<g transform="translate(0.000000,700.000000) scale(0.100000,-0.100000)"
fill="#000000" stroke="none">
<path d="M544 6985 c-211 -46 -386 -184 -477 -377 -72 -153 -67 107 -66 -3108
1 -2416 3 -2905 14 -2958 54 -250 248 -453 495 -519 61 -17 233 -18 2975 -18
1601 0 2930 3 2955 7 57 9 143 39 194 67 192 109 306 262 354 476 9 38 9 5837
1 5886 -37 216 -205 423 -410 506 -139 56 64 53 -3079 52 -2374 0 -2906 -3
-2956 -14z m3280 -1649 c120 -16 235 -41 321 -72 176 -63 368 -178 468 -281
l38 -40 -172 -166 c-157 -154 -189 -180 -189 -159 0 14 -75 88 -140 139 -111
86 -230 137 -395 168 -40 7 -197 7 -259 0 -259 -32 -479 -195 -543 -404 -26
-85 -23 -258 6 -332 47 -121 138 -214 286 -290 76 -40 78 -40 460 -169 143
-48 284 -98 314 -109 178 -71 303 -151 421 -271 171 -172 243 -355 243 -620 1
-188 -28 -332 -93 -469 -184 -384 -590 -606 -1110 -608 -120 -1 -211 6 -290
20 -14 3 -43 8 -65 12 -91 16 -271 78 -380 132 -147 73 -265 160 -382 283
l-53 55 44 40 c43 40 269 234 314 269 l24 19 26 -34 c113 -148 279 -266 460
-327 113 -38 176 -47 322 -45 211 3 387 70 516 198 117 116 166 233 165 395 0
196 -75 335 -241 445 -105 70 -194 107 -503 209 -299 99 -444 156 -540 212
-267 156 -422 380 -454 654 -19 166 5 401 52 506 105 237 262 398 500 514 83
40 248 93 323 104 24 3 46 7 50 10 4 2 43 7 87 11 44 3 81 7 82 9 5 5 233 -1
287 -8z"/>
</g>
</svg>
