<?xml version="1.0" encoding="UTF-8"?>
<svg width="200px" height="200px" viewBox="0 0 200 200" version="1.1" xmlns="http://www.w3.org/2000/svg" xmlns:xlink="http://www.w3.org/1999/xlink">
    <title>ContentBox Tooltip</title>
    <g id="ContentBox-Tooltip" stroke="none" stroke-width="1" fill="none" fill-rule="evenodd">
        <rect id="Rectangle" stroke="#000000" stroke-width="4" x="17" y="15" width="167" height="171"></rect>
        <path d="M109.842554,123.078421 L109.842554,120.426749 L108.393384,120.426749 C107.694494,120.426749 107.026437,120.37536 106.389214,120.272582 C105.75199,120.169804 105.202128,119.959109 104.739627,119.640497 C104.277126,119.321886 103.907126,118.864524 103.629625,118.268411 C103.352125,117.672299 103.213374,116.880909 103.213374,115.89424 L103.213374,115.89424 L103.213374,81.1450061 L109.34922,81.1450061 C110.294777,81.1450061 111.086167,81.2837564 111.723391,81.5612569 C112.360614,81.8387574 112.874504,82.2138971 113.265061,82.6866757 C113.655617,83.1594544 113.953673,83.7093166 114.159229,84.3362623 C114.364785,84.9632079 114.508674,85.6261259 114.590896,86.3250161 L114.590896,86.3250161 L114.89923,89.0383547 L118.16757,89.0383547 L117.859236,78 L82.3083339,78 L82,89.0383547 L85.2683397,89.0383547 L85.607507,86.3250161 C85.6897294,85.6261259 85.8284796,84.9632079 86.0237578,84.3362623 C86.219036,83.7093166 86.5170921,83.1594544 86.9179262,82.6866757 C87.3187603,82.2138971 87.8326502,81.8387574 88.4595958,81.5612569 C89.0865415,81.2837564 89.8625152,81.1450061 90.787517,81.1450061 L90.787517,81.1450061 L96.8308621,81.1450061 L96.8308621,116.202574 C96.8308621,117.127576 96.6921118,117.872716 96.4146113,118.437995 C96.1371107,119.003274 95.7619711,119.429802 95.2891924,119.717581 C94.8164137,120.005359 94.2665515,120.195498 93.6396059,120.287999 C93.0126602,120.380499 92.3497423,120.426749 91.650852,120.426749 L91.650852,120.426749 L90.2016826,120.426749 L90.2016826,123.078421 L109.842554,123.078421 Z" id="T" fill="#000000" fill-rule="nonzero"></path>
    </g>
</svg>