<?xml version="1.0" encoding="UTF-8"?>
<svg width="200px" height="200px" viewBox="0 0 200 200" version="1.1" xmlns="http://www.w3.org/2000/svg" xmlns:xlink="http://www.w3.org/1999/xlink">
    <title>FillBox Tooltip</title>
    <g id="FillBox-Tooltip" stroke="none" stroke-width="1" fill="none" fill-rule="evenodd">
        <g id="Group" transform="translate(19.500000, 50.000000)" stroke="#000000" stroke-width="4">
            <polyline id="Path-3" stroke-linecap="round" stroke-linejoin="round" points="59.8487679 12.4629196 74.4961925 6.13870997e-14 87.3827999 12.4629196 104.931181 5.86197757e-14 122.977346 12.4629196 149.0086 6.13870997e-14 160.141795 12.4629196"></polyline>
            <line x1="0.5" y1="12.4629196" x2="49.5" y2="12.4629196" id="Line" stroke-linecap="square"></line>
        </g>
        <g id="Group-2" transform="translate(19.000000, 94.000000)" stroke="#000000" stroke-width="4">
            <polyline id="Path-3-Copy" stroke-linecap="round" stroke-linejoin="round" points="1.13686838e-13 12.4629196 14.6474247 -5.2299738e-14 27.534032 12.4629196 45.0824135 -5.5067062e-14 63.128578 12.4629196 89.1598325 -5.2299738e-14 100.293027 12.4629196"></polyline>
            <line x1="111" y1="12" x2="160" y2="12" id="Line-Copy" stroke-linecap="square"></line>
        </g>
        <g id="Group-3" transform="translate(19.000000, 137.000000)" stroke="#000000" stroke-width="4">
            <polyline id="Path-3-Copy-2" stroke-linecap="round" stroke-linejoin="round" points="1.13686838e-13 12.4629196 14.6474247 -5.2299738e-14 27.534032 12.4629196 45.0824135 -5.5067062e-14 63.128578 12.4629196 89.1598325 -5.2299738e-14 100.293027 12.4629196"></polyline>
            <line x1="111" y1="12" x2="160" y2="12" id="Line-Copy-2" stroke-linecap="square"></line>
        </g>
    </g>
</svg>