<?xml version="1.0" encoding="UTF-8"?>
<svg width="200px" height="200px" viewBox="0 0 200 200" version="1.1" xmlns="http://www.w3.org/2000/svg" xmlns:xlink="http://www.w3.org/1999/xlink">
    <title>QRBox Tooltip</title>
    <g id="QRBox-Tooltip" stroke="none" stroke-width="1" fill="none" fill-rule="evenodd">
        <rect id="Rectangle" stroke="#000000" stroke-width="4" x="17" y="17" width="167" height="74"></rect>
        <rect id="Rectangle-Copy" stroke="#000000" stroke-width="4" x="17" y="109" width="167" height="74"></rect>
        <path d="M114.196343,81.5796481 L114.196343,78.9008924 L113.275521,78.9008924 C112.122167,78.9008924 111.061827,78.7334701 110.094498,78.3986257 C109.12717,78.0637812 108.280757,77.5010565 107.555261,76.7104515 C106.829765,75.9198465 106.234486,74.8688069 105.769424,73.5573327 C105.304362,72.2458586 104.98812,70.6134918 104.820698,68.6602324 C107.090199,68.2509781 109.103917,67.4650237 110.86185,66.3023693 C112.619783,65.1397149 114.09868,63.6654691 115.298539,61.879632 C116.498399,60.0937948 117.405269,58.0289206 118.01915,55.6850093 C118.633032,53.3410981 118.939973,50.7739571 118.939973,47.9835866 C118.939973,44.8025642 118.549321,41.9238319 117.768017,39.3473897 C116.986713,36.7709476 115.83336,34.5665548 114.307958,32.7342115 C112.782555,30.9018682 110.913007,29.4880804 108.699313,28.4928482 C106.485619,27.4976161 103.93708,27 101.053698,27 C98.0214948,27 95.3706428,27.4976161 93.1011414,28.4928482 C90.83164,29.4880804 88.9527905,30.8972175 87.4645929,32.7202596 C85.9763953,34.5433017 84.860247,36.7430439 84.1161482,39.319486 C83.3720494,41.8959282 83,44.7653592 83,47.9277792 C83,50.885572 83.3208926,53.5875808 83.9626778,56.0338056 C84.6044631,58.4800305 85.5671409,60.6100134 86.8507114,62.4237542 C88.1342818,64.2374951 89.7480461,65.697789 91.6920043,66.804636 C93.6359624,67.911483 95.9194157,68.604425 98.542364,68.8834621 C98.7283887,71.3389881 99.235306,73.3806093 100.063116,75.0083254 C100.890926,76.6360416 101.918712,77.9382145 103.146475,78.9148442 C104.374238,79.8914739 105.736869,80.5797653 107.234368,80.9797184 C108.731867,81.3796715 110.234017,81.5796481 111.740817,81.5796481 L111.740817,81.5796481 L114.196343,81.5796481 Z M100.99789,65.9256693 C98.8772085,65.9256693 97.0774195,65.5210655 95.5985231,64.7118581 C94.1196267,63.9026506 92.9151167,62.730695 91.9849932,61.1959912 C91.0548697,59.6612874 90.3805301,57.7824379 89.9619745,55.5594426 C89.543419,53.3364474 89.3341412,50.8111621 89.3341412,47.9835866 C89.3341412,45.1560111 89.543419,42.6307257 89.9619745,40.4077305 C90.3805301,38.1847353 91.0595203,36.3105364 91.998945,34.7851339 C92.9383698,33.2597313 94.152181,32.0970769 95.6403786,31.2971707 C97.1285763,30.4972644 98.9330159,30.0973113 101.053698,30.0973113 C103.174379,30.0973113 104.964867,30.4972644 106.425161,31.2971707 C107.885455,32.0970769 109.076013,33.2597313 109.996835,34.7851339 C110.917657,36.3105364 111.582696,38.1847353 111.99195,40.4077305 C112.401204,42.6307257 112.605832,45.1560111 112.605832,47.9835866 C112.605832,50.8111621 112.401204,53.3364474 111.99195,55.5594426 C111.582696,57.7824379 110.917657,59.6612874 109.996835,61.1959912 C109.076013,62.730695 107.876154,63.9026506 106.397257,64.7118581 C104.918361,65.5210655 103.118572,65.9256693 100.99789,65.9256693 Z" id="Q" fill="#000000" fill-rule="nonzero"></path>
        <path d="M99.6306085,166.795218 L99.6306085,164.395499 L98.8772085,164.395499 C98.2447245,164.395499 97.6447948,164.353643 97.0774195,164.269932 C96.5100441,164.186221 96.012428,164.014148 95.5845712,163.753714 C95.1567144,163.493279 94.8172193,163.107278 94.566086,162.59571 C94.3149526,162.084142 94.1893859,161.409802 94.1893859,160.572691 L94.1893859,160.572691 L94.1893859,148.797327 L98.9330159,148.797327 L106.662342,161.660936 C107.313429,162.739879 107.92266,163.614195 108.490035,164.283884 C109.05741,164.953573 109.741051,165.474442 110.540957,165.846492 C111.340864,166.218541 112.312843,166.469674 113.456895,166.599892 C114.600947,166.730109 116.065891,166.795218 117.851728,166.795218 L117.851728,166.795218 L118.660936,166.795218 L118.660936,164.395499 L118.493513,164.395499 C117.284353,164.395499 116.224012,164.014148 115.312491,163.251447 C114.40097,162.488746 113.461545,161.344694 112.494217,159.819291 L112.494217,159.819291 L104.653276,147.430046 C105.657809,147.095201 106.662342,146.648742 107.666876,146.090668 C108.671409,145.532594 109.573629,144.835001 110.373535,143.99789 C111.173441,143.160779 111.819877,142.170197 112.312843,141.026145 C112.805808,139.882094 113.052291,138.547366 113.052291,137.021964 C113.052291,133.338675 111.84313,130.580858 109.424809,128.748515 C107.006488,126.916172 103.323199,126 98.3749418,126 L98.3749418,126 L83,126 L83,128.399719 L83.7254963,128.399719 C84.3579803,128.399719 84.95791,128.441574 85.5252854,128.525285 C86.0926607,128.608996 86.5902768,128.790371 87.0181336,129.069408 C87.4459904,129.348445 87.7854855,129.743747 88.0366189,130.255315 C88.2877522,130.766883 88.4133189,131.441223 88.4133189,132.278334 L88.4133189,132.278334 L88.4133189,160.572691 C88.4133189,161.409802 88.2877522,162.084142 88.0366189,162.59571 C87.7854855,163.107278 87.4459904,163.493279 87.0181336,163.753714 C86.5902768,164.014148 86.0926607,164.186221 85.5252854,164.269932 C84.95791,164.353643 84.3579803,164.395499 83.7254963,164.395499 L83.7254963,164.395499 L83,164.395499 L83,166.795218 L99.6306085,166.795218 Z M98.2075195,146.118572 L94.1893859,146.118572 L94.1893859,128.734563 L98.068001,128.734563 C99.6864159,128.734563 101.058348,128.888034 102.183798,129.194974 C103.309247,129.501915 104.225419,129.994881 104.932313,130.673871 C105.639206,131.352861 106.150774,132.227177 106.467016,133.296819 C106.783258,134.366461 106.941379,135.663983 106.941379,137.189386 C106.941379,138.677584 106.79721,139.979756 106.508872,141.095905 C106.220534,142.212053 105.74152,143.142176 105.071831,143.886275 C104.402142,144.630374 103.509224,145.188448 102.393075,145.560498 C101.276927,145.932547 99.8817419,146.118572 98.2075195,146.118572 L98.2075195,146.118572 Z" id="R" fill="#000000" fill-rule="nonzero"></path>
    </g>
</svg>